<svg width="130" height="14" viewBox="0 0 130 14" fill="none" xmlns="http://www.w3.org/2000/svg">
<path opacity="0.3" d="M76.468 10.3753C75.884 10.3753 75.364 10.2753 74.908 10.0753C74.452 9.8753 74.092 9.6033 73.828 9.2593C73.564 8.9073 73.416 8.5153 73.384 8.0833H75.412C75.436 8.3153 75.544 8.5033 75.736 8.6473C75.928 8.7913 76.164 8.8633 76.444 8.8633C76.7 8.8633 76.896 8.8153 77.032 8.7193C77.176 8.6153 77.248 8.4833 77.248 8.3233C77.248 8.1313 77.148 7.9913 76.948 7.9033C76.748 7.8073 76.424 7.7033 75.976 7.5913C75.496 7.4793 75.096 7.3633 74.776 7.2433C74.456 7.1153 74.18 6.9193 73.948 6.6553C73.716 6.3833 73.6 6.0193 73.6 5.5633C73.6 5.1793 73.704 4.8313 73.912 4.5193C74.128 4.1993 74.44 3.9473 74.848 3.7633C75.264 3.5793 75.756 3.4873 76.324 3.4873C77.164 3.4873 77.824 3.6953 78.304 4.1113C78.792 4.5273 79.072 5.0793 79.144 5.7673H77.248C77.216 5.5353 77.112 5.3513 76.936 5.2153C76.768 5.0793 76.544 5.0113 76.264 5.0113C76.024 5.0113 75.84 5.0593 75.712 5.1553C75.584 5.2433 75.52 5.3673 75.52 5.5273C75.52 5.7193 75.62 5.8633 75.82 5.9593C76.028 6.0553 76.348 6.1513 76.78 6.2473C77.276 6.3753 77.68 6.5033 77.992 6.6313C78.304 6.7513 78.576 6.9513 78.808 7.2313C79.048 7.5033 79.172 7.8713 79.18 8.3353C79.18 8.7273 79.068 9.0793 78.844 9.3913C78.628 9.6953 78.312 9.9353 77.896 10.1113C77.488 10.2873 77.012 10.3753 76.468 10.3753ZM80.0274 6.9193C80.0274 6.2313 80.1554 5.6273 80.4114 5.1073C80.6754 4.5873 81.0314 4.1873 81.4794 3.9073C81.9274 3.6273 82.4274 3.4873 82.9794 3.4873C83.4514 3.4873 83.8634 3.5833 84.2154 3.7753C84.5754 3.9673 84.8514 4.2193 85.0434 4.5313V3.5833H87.0954V10.2793H85.0434V9.3313C84.8434 9.6433 84.5634 9.8953 84.2034 10.0873C83.8514 10.2793 83.4394 10.3753 82.9674 10.3753C82.4234 10.3753 81.9274 10.2353 81.4794 9.9553C81.0314 9.6673 80.6754 9.2633 80.4114 8.7433C80.1554 8.2153 80.0274 7.6073 80.0274 6.9193ZM85.0434 6.9313C85.0434 6.4193 84.8994 6.0153 84.6114 5.7193C84.3314 5.4233 83.9874 5.2753 83.5794 5.2753C83.1714 5.2753 82.8234 5.4233 82.5354 5.7193C82.2554 6.0073 82.1154 6.4073 82.1154 6.9193C82.1154 7.4313 82.2554 7.8393 82.5354 8.1433C82.8234 8.4393 83.1714 8.5873 83.5794 8.5873C83.9874 8.5873 84.3314 8.4393 84.6114 8.1433C84.8994 7.8473 85.0434 7.4433 85.0434 6.9313ZM91.1239 3.4873C91.5959 3.4873 92.0079 3.5833 92.3599 3.7753C92.7199 3.9673 92.9959 4.2193 93.1879 4.5313V3.5833H95.2399V10.2673C95.2399 10.8833 95.1159 11.4393 94.8679 11.9353C94.6279 12.4393 94.2559 12.8393 93.7519 13.1353C93.2559 13.4313 92.6359 13.5793 91.8919 13.5793C90.8999 13.5793 90.0959 13.3433 89.4799 12.8713C88.8639 12.4073 88.5119 11.7753 88.4239 10.9753H90.4519C90.5159 11.2313 90.6679 11.4313 90.9079 11.5753C91.1479 11.7273 91.4439 11.8033 91.7959 11.8033C92.2199 11.8033 92.5559 11.6793 92.8039 11.4313C93.0599 11.1913 93.1879 10.8033 93.1879 10.2673V9.3193C92.9879 9.6313 92.7119 9.8873 92.3599 10.0873C92.0079 10.2793 91.5959 10.3753 91.1239 10.3753C90.5719 10.3753 90.0719 10.2353 89.6239 9.9553C89.1759 9.6673 88.8199 9.2633 88.5559 8.7433C88.2999 8.2153 88.1719 7.6073 88.1719 6.9193C88.1719 6.2313 88.2999 5.6273 88.5559 5.1073C88.8199 4.5873 89.1759 4.1873 89.6239 3.9073C90.0719 3.6273 90.5719 3.4873 91.1239 3.4873ZM93.1879 6.9313C93.1879 6.4193 93.0439 6.0153 92.7559 5.7193C92.4759 5.4233 92.1319 5.2753 91.7239 5.2753C91.3159 5.2753 90.9679 5.4233 90.6799 5.7193C90.3999 6.0073 90.2599 6.4073 90.2599 6.9193C90.2599 7.4313 90.3999 7.8393 90.6799 8.1433C90.9679 8.4393 91.3159 8.5873 91.7239 8.5873C92.1319 8.5873 92.4759 8.4393 92.7559 8.1433C93.0439 7.8473 93.1879 7.4433 93.1879 6.9313ZM96.3165 6.9193C96.3165 6.2313 96.4445 5.6273 96.7005 5.1073C96.9645 4.5873 97.3205 4.1873 97.7685 3.9073C98.2165 3.6273 98.7165 3.4873 99.2685 3.4873C99.7405 3.4873 100.152 3.5833 100.504 3.7753C100.864 3.9673 101.14 4.2193 101.332 4.5313V3.5833H103.384V10.2793H101.332V9.3313C101.132 9.6433 100.852 9.8953 100.492 10.0873C100.14 10.2793 99.7285 10.3753 99.2565 10.3753C98.7125 10.3753 98.2165 10.2353 97.7685 9.9553C97.3205 9.6673 96.9645 9.2633 96.7005 8.7433C96.4445 8.2153 96.3165 7.6073 96.3165 6.9193ZM101.332 6.9313C101.332 6.4193 101.188 6.0153 100.9 5.7193C100.62 5.4233 100.276 5.2753 99.8685 5.2753C99.4605 5.2753 99.1125 5.4233 98.8245 5.7193C98.5445 6.0073 98.4045 6.4073 98.4045 6.9193C98.4045 7.4313 98.5445 7.8393 98.8245 8.1433C99.1125 8.4393 99.4605 8.5873 99.8685 8.5873C100.276 8.5873 100.62 8.4393 100.9 8.1433C101.188 7.8473 101.332 7.4433 101.332 6.9313ZM108.361 3.5593C108.881 3.5593 109.345 3.6673 109.753 3.8833C110.169 4.0993 110.493 4.4193 110.725 4.8433C110.957 5.2673 111.073 5.7793 111.073 6.3793V10.2793H109.717V6.5833C109.717 5.9913 109.569 5.5393 109.273 5.2273C108.977 4.9073 108.573 4.7473 108.061 4.7473C107.549 4.7473 107.141 4.9073 106.837 5.2273C106.541 5.5393 106.393 5.9913 106.393 6.5833V10.2793H105.025V3.6673H106.393V4.4233C106.617 4.1513 106.901 3.9393 107.245 3.7873C107.597 3.6353 107.969 3.5593 108.361 3.5593ZM113.514 2.7913C113.266 2.7913 113.058 2.7073 112.89 2.5393C112.722 2.3713 112.638 2.1633 112.638 1.9153C112.638 1.6673 112.722 1.4593 112.89 1.2913C113.058 1.1233 113.266 1.0393 113.514 1.0393C113.754 1.0393 113.958 1.1233 114.126 1.2913C114.294 1.4593 114.378 1.6673 114.378 1.9153C114.378 2.1633 114.294 2.3713 114.126 2.5393C113.958 2.7073 113.754 2.7913 113.514 2.7913ZM114.186 3.6673V10.2793H112.818V3.6673H114.186ZM117.194 9.1633H120.194V10.2793H115.61V9.1633L118.622 4.7833H115.61V3.6673H120.194V4.7833L117.194 9.1633ZM127.69 6.8113C127.69 7.0593 127.674 7.2833 127.642 7.4833H122.59C122.63 8.0113 122.826 8.4353 123.178 8.7553C123.53 9.0753 123.962 9.2353 124.474 9.2353C125.21 9.2353 125.73 8.9273 126.034 8.3113H127.51C127.31 8.9193 126.946 9.4193 126.418 9.8113C125.898 10.1953 125.25 10.3873 124.474 10.3873C123.842 10.3873 123.274 10.2473 122.77 9.9673C122.274 9.6793 121.882 9.2793 121.594 8.7673C121.314 8.2473 121.174 7.6473 121.174 6.9673C121.174 6.2873 121.31 5.6913 121.582 5.1793C121.862 4.6593 122.25 4.2593 122.746 3.9793C123.25 3.6993 123.826 3.5593 124.474 3.5593C125.098 3.5593 125.654 3.6953 126.142 3.9673C126.63 4.2393 127.01 4.6233 127.282 5.1193C127.554 5.6073 127.69 6.1713 127.69 6.8113ZM126.262 6.3793C126.254 5.8753 126.074 5.4713 125.722 5.1673C125.37 4.8633 124.934 4.7113 124.414 4.7113C123.942 4.7113 123.538 4.8633 123.202 5.1673C122.866 5.4633 122.666 5.8673 122.602 6.3793H126.262Z" fill="#F9F9F9"/>
<path opacity="0.3" d="M1.15909 10.2793V1.55202H3.97585C4.59517 1.55202 5.11222 1.67134 5.52699 1.90998C5.9446 2.14577 6.25852 2.4668 6.46875 2.87305C6.68182 3.2793 6.78835 3.73668 6.78835 4.24521C6.78835 4.75373 6.68324 5.21254 6.47301 5.62163C6.26278 6.02788 5.95028 6.35032 5.53551 6.58896C5.12074 6.82475 4.60511 6.94265 3.98864 6.94265H1.77273V6.22674H3.96733C4.42472 6.22674 4.80398 6.14151 5.10511 5.97106C5.40625 5.79776 5.63068 5.56197 5.77841 5.26367C5.92898 4.96538 6.00426 4.62589 6.00426 4.24521C6.00426 3.86452 5.92898 3.52504 5.77841 3.22674C5.63068 2.92844 5.40483 2.69407 5.10085 2.52362C4.79972 2.35316 4.41761 2.26793 3.95455 2.26793H1.95597V10.2793H1.15909ZM11.2664 10.4157C10.701 10.4157 10.201 10.2722 9.76637 9.98526C9.33455 9.69833 8.99648 9.30202 8.75216 8.79634C8.50784 8.28782 8.38569 7.70117 8.38569 7.0364C8.38569 6.36594 8.50784 5.77646 8.75216 5.26793C8.99648 4.75657 9.33455 4.35884 9.76637 4.07475C10.201 3.78782 10.701 3.64435 11.2664 3.64435C11.8317 3.64435 12.3303 3.78782 12.7621 4.07475C13.1939 4.36168 13.532 4.75941 13.7763 5.26793C14.0235 5.77646 14.147 6.36594 14.147 7.0364C14.147 7.70117 14.0249 8.28782 13.7806 8.79634C13.5363 9.30202 13.1968 9.69833 12.7621 9.98526C12.3303 10.2722 11.8317 10.4157 11.2664 10.4157ZM11.2664 9.72106C11.7209 9.72106 12.1059 9.5989 12.4212 9.35458C12.7365 9.11026 12.9752 8.78498 13.1371 8.37873C13.3019 7.97248 13.3843 7.52504 13.3843 7.0364C13.3843 6.54776 13.3019 6.0989 13.1371 5.68981C12.9752 5.28072 12.7365 4.95259 12.4212 4.70543C12.1059 4.45827 11.7209 4.33469 11.2664 4.33469C10.8147 4.33469 10.4297 4.45827 10.1115 4.70543C9.7962 4.95259 9.55614 5.28072 9.39137 5.68981C9.22944 6.0989 9.14847 6.54776 9.14847 7.0364C9.14847 7.52504 9.22944 7.97248 9.39137 8.37873C9.55614 8.78498 9.7962 9.11026 10.1115 9.35458C10.4269 9.5989 10.8118 9.72106 11.2664 9.72106ZM17.3339 10.2793L15.3566 3.73384H16.1577L17.7089 9.13299H17.7643L19.3111 3.73384H20.1165L21.6506 9.12021H21.7103L23.2614 3.73384H24.0626L22.0853 10.2793H21.3012L19.7501 4.91424H19.6691L18.118 10.2793H17.3339ZM28.2519 10.4157C27.6411 10.4157 27.1127 10.2736 26.6666 9.98952C26.2206 9.70259 25.8755 9.30629 25.6311 8.8006C25.3897 8.29208 25.2689 7.70685 25.2689 7.04492C25.2689 6.38583 25.3897 5.8006 25.6311 5.28924C25.8755 4.77504 26.2121 4.37305 26.6411 4.08327C27.0729 3.79066 27.5715 3.64435 28.1368 3.64435C28.4919 3.64435 28.8343 3.70969 29.1638 3.84038C29.4933 3.96822 29.7888 4.16566 30.0502 4.43271C30.3144 4.69691 30.5232 5.03072 30.6766 5.43413C30.83 5.83469 30.9067 6.30913 30.9067 6.85742V7.23242H25.7931V6.56339H30.1311C30.1311 6.14293 30.0459 5.76509 29.8755 5.42986C29.7078 5.0918 29.4735 4.82475 29.1723 4.62873C28.874 4.43271 28.5289 4.33469 28.1368 4.33469C27.722 4.33469 27.357 4.44549 27.0416 4.66708C26.7263 4.88867 26.4791 5.18129 26.3002 5.54492C26.124 5.90856 26.0345 6.30629 26.0317 6.7381V7.13867C26.0317 7.65856 26.1212 8.1131 26.3002 8.50231C26.482 8.88867 26.7391 9.18839 27.0715 9.40146C27.4039 9.61452 27.7973 9.72106 28.2519 9.72106C28.5615 9.72106 28.8328 9.67276 29.0658 9.57617C29.3016 9.47958 29.499 9.35032 29.6581 9.18839C29.8201 9.02362 29.9422 8.84322 30.0246 8.64719L30.7448 8.88157C30.6453 9.15714 30.482 9.4114 30.2547 9.64435C30.0303 9.87731 29.749 10.0648 29.411 10.2069C29.0757 10.3461 28.6894 10.4157 28.2519 10.4157ZM32.8694 10.2793V3.73384H33.6067V4.73952H33.6621C33.7927 4.40998 34.02 4.14435 34.3439 3.94265C34.6706 3.7381 35.0399 3.63583 35.4518 3.63583C35.5143 3.63583 35.5839 3.63725 35.6606 3.64009C35.7373 3.64293 35.8013 3.64577 35.8524 3.64862V4.41992C35.8183 4.41424 35.7587 4.40572 35.6734 4.39435C35.5882 4.38299 35.4959 4.37731 35.3964 4.37731C35.0555 4.37731 34.7515 4.44975 34.4845 4.59464C34.2203 4.73668 34.0115 4.93413 33.8581 5.18697C33.7047 5.43981 33.628 5.72816 33.628 6.05202V10.2793H32.8694ZM39.8851 10.4157C39.2743 10.4157 38.7459 10.2736 38.2999 9.98952C37.8539 9.70259 37.5087 9.30629 37.2644 8.8006C37.0229 8.29208 36.9021 7.70685 36.9021 7.04492C36.9021 6.38583 37.0229 5.8006 37.2644 5.28924C37.5087 4.77504 37.8453 4.37305 38.2743 4.08327C38.7061 3.79066 39.2047 3.64435 39.77 3.64435C40.1252 3.64435 40.4675 3.70969 40.797 3.84038C41.1266 3.96822 41.422 4.16566 41.6834 4.43271C41.9476 4.69691 42.1564 5.03072 42.3098 5.43413C42.4632 5.83469 42.5399 6.30913 42.5399 6.85742V7.23242H37.4263V6.56339H41.7644C41.7644 6.14293 41.6791 5.76509 41.5087 5.42986C41.3411 5.0918 41.1067 4.82475 40.8056 4.62873C40.5073 4.43271 40.1621 4.33469 39.77 4.33469C39.3553 4.33469 38.9902 4.44549 38.6749 4.66708C38.3595 4.88867 38.1124 5.18129 37.9334 5.54492C37.7573 5.90856 37.6678 6.30629 37.6649 6.7381V7.13867C37.6649 7.65856 37.7544 8.1131 37.9334 8.50231C38.1152 8.88867 38.3723 9.18839 38.7047 9.40146C39.0371 9.61452 39.4306 9.72106 39.8851 9.72106C40.1948 9.72106 40.4661 9.67276 40.699 9.57617C40.9348 9.47958 41.1323 9.35032 41.2914 9.18839C41.4533 9.02362 41.5754 8.84322 41.6578 8.64719L42.378 8.88157C42.2786 9.15714 42.1152 9.4114 41.8879 9.64435C41.6635 9.87731 41.3823 10.0648 41.0442 10.2069C40.709 10.3461 40.3226 10.4157 39.8851 10.4157ZM46.8592 10.4157C46.3223 10.4157 45.8521 10.2736 45.4487 9.98952C45.0453 9.70543 44.7299 9.30913 44.5027 8.8006C44.2782 8.29208 44.166 7.69975 44.166 7.02362C44.166 6.35032 44.2782 5.76083 44.5027 5.25515C44.7299 4.74663 45.0467 4.35174 45.453 4.07049C45.8592 3.7864 46.3322 3.64435 46.872 3.64435C47.2697 3.64435 47.6007 3.71538 47.8649 3.85742C48.1291 3.99663 48.3407 4.16992 48.4998 4.37731C48.6589 4.58469 48.7825 4.7864 48.8706 4.98242H48.9388V1.55202H49.7015V10.2793H48.9601V9.06481H48.8706C48.7825 9.26367 48.6575 9.46822 48.4956 9.67844C48.3336 9.88583 48.1192 10.0605 47.8521 10.2026C47.5879 10.3446 47.2569 10.4157 46.8592 10.4157ZM46.9487 9.72106C47.372 9.72106 47.7328 9.606 48.0311 9.37589C48.3294 9.14293 48.5567 8.82333 48.7129 8.41708C48.872 8.00799 48.9515 7.53924 48.9515 7.01083C48.9515 6.4881 48.8734 6.02646 48.7172 5.62589C48.5609 5.22248 48.3336 4.90714 48.0353 4.67986C47.7371 4.44975 47.3748 4.33469 46.9487 4.33469C46.5112 4.33469 46.1419 4.45401 45.8407 4.69265C45.5424 4.92844 45.3152 5.24805 45.1589 5.65146C45.0055 6.05487 44.9288 6.50799 44.9288 7.01083C44.9288 7.51935 45.0069 7.97816 45.1632 8.38725C45.3194 8.79634 45.5467 9.12163 45.845 9.3631C46.1461 9.60174 46.514 9.72106 46.9487 9.72106ZM55.9772 10.2793V1.55202H56.74V4.98242H56.8081C56.8934 4.7864 57.0155 4.58469 57.1746 4.37731C57.3365 4.16992 57.5482 3.99663 57.8096 3.85742C58.0738 3.71538 58.4061 3.64435 58.8067 3.64435C59.3436 3.64435 59.8152 3.7864 60.2215 4.07049C60.6277 4.35174 60.9445 4.74663 61.1718 5.25515C61.399 5.76083 61.5127 6.35032 61.5127 7.02362C61.5127 7.69975 61.399 8.29208 61.1718 8.8006C60.9473 9.30913 60.632 9.70543 60.2258 9.98952C59.8223 10.2736 59.3536 10.4157 58.8195 10.4157C58.4218 10.4157 58.0894 10.3446 57.8223 10.2026C57.5581 10.0605 57.3451 9.88583 57.1831 9.67844C57.0212 9.46822 56.8962 9.26367 56.8081 9.06481H56.7144V10.2793H55.9772ZM56.7272 7.01083C56.7272 7.53924 56.8053 8.00799 56.9615 8.41708C57.1206 8.82333 57.3479 9.14293 57.6434 9.37589C57.9417 9.606 58.3025 9.72106 58.7258 9.72106C59.1604 9.72106 59.5283 9.60174 59.8294 9.3631C60.1306 9.12163 60.3593 8.79634 60.5155 8.38725C60.6718 7.97816 60.7499 7.51935 60.7499 7.01083C60.7499 6.50799 60.6718 6.05487 60.5155 5.65146C60.3621 5.24805 60.1348 4.92844 59.8337 4.69265C59.5326 4.45401 59.1633 4.33469 58.7258 4.33469C58.2996 4.33469 57.9374 4.44975 57.6391 4.67986C57.3436 4.90714 57.1178 5.22248 56.9615 5.62589C56.8053 6.02646 56.7272 6.4881 56.7272 7.01083ZM63.7641 12.7338C63.6136 12.7338 63.4729 12.7196 63.3423 12.6912C63.2116 12.6628 63.1079 12.6316 63.0312 12.5975L63.2357 11.9284C63.4942 12.008 63.7244 12.0364 63.9261 12.0137C64.1278 11.9938 64.3067 11.9029 64.463 11.7409C64.6192 11.5819 64.7585 11.3375 64.8806 11.008L65.1192 10.3432L62.7116 3.73384H63.534L65.4772 9.27788H65.5369L67.48 3.73384H68.3025L65.5326 11.3148C65.4161 11.6301 65.2727 11.8929 65.1022 12.1032C64.9317 12.3162 64.7343 12.4739 64.5099 12.5762C64.2883 12.6813 64.0397 12.7338 63.7641 12.7338Z" fill="white"/>
</svg>
