<svg width="21" height="21" viewBox="0 0 21 21" fill="none" xmlns="http://www.w3.org/2000/svg">
<path fill-rule="evenodd" clip-rule="evenodd" d="M21 9.89353V4.29841V4.29733C21 1.92413 19.121 0 16.8036 0H0V0.97764C0 4.2146 1.7772 7.17761 4.59615 8.64192L7.37208 10.0837C7.51162 10.1567 7.67633 10.0525 7.67633 9.89245V6.68449C7.67633 6.44707 7.86412 6.25476 8.09597 6.25476H12.5715C13.0656 6.25476 13.5534 6.37509 13.9951 6.60392L20.6958 10.0848C20.8353 10.1578 21 10.0536 21 9.89353ZM0 11.1065V16.7016V16.7027C0 19.0759 1.87895 21 4.19643 21H21V20.0224C21 16.7854 19.2228 13.8224 16.4039 12.3581L13.6279 10.9163C13.4884 10.8433 13.3237 10.9475 13.3237 11.1076V14.3155C13.3237 14.5529 13.1359 14.7453 12.904 14.7453H8.42854C7.93441 14.7453 7.44657 14.6249 7.0049 14.3961L0.304244 10.9153C0.164713 10.8422 0 10.9464 0 11.1065Z" fill="#E4E4E4"/>
</svg>
