<svg width="27" height="21" viewBox="0 0 27 21" fill="none" xmlns="http://www.w3.org/2000/svg">
<path d="M26.0711 2.48307C25.1131 2.90741 24.0827 3.19055 22.9957 3.32452C24.1008 2.66845 24.9509 1.62207 25.3499 0.385965C24.3158 0.992069 23.1702 1.43741 21.9515 1.67203C20.9783 0.640138 19.5901 0 18.052 0C15.0976 0 12.7028 2.37372 12.7028 5.30069C12.7028 5.7149 12.7513 6.11824 12.8426 6.51C8.39783 6.28696 4.45562 4.17393 1.81831 0.967449C1.35486 1.75097 1.09417 2.66845 1.09417 3.63662C1.09417 5.47666 2.03628 7.09655 3.47297 8.05097C2.59603 8.02417 1.77052 7.78014 1.04783 7.3891C1.04783 7.40503 1.04783 7.42893 1.04783 7.45138C1.04783 10.0228 2.89221 12.1641 5.3369 12.6514C4.8901 12.7738 4.41797 12.8419 3.93134 12.8419C3.58593 12.8419 3.24921 12.8028 2.92335 12.7441C3.60403 14.8456 5.57876 16.3814 7.91845 16.4271C6.08783 17.8464 3.78217 18.6965 1.27521 18.6965C0.842172 18.6965 0.418552 18.6719 0 18.6212C2.36866 20.1209 5.18121 21 8.20014 21C18.0376 21 23.4193 12.9215 23.4193 5.91331C23.4193 5.68376 23.4121 5.45493 23.4012 5.229C24.4512 4.48748 25.3564 3.5519 26.0711 2.48307Z" fill="#E4E4E4"/>
</svg>
