<svg width="64" height="64" viewBox="0 0 64 64" fill="none" xmlns="http://www.w3.org/2000/svg">
<g style="mix-blend-mode:overlay">
<path d="M64 32C64 49.6731 49.6731 64 32 64C14.3269 64 0 49.6731 0 32C0 14.3269 14.3269 0 32 0C49.6731 0 64 14.3269 64 32ZM6.15886 32C6.15886 46.2717 17.7283 57.8411 32 57.8411C46.2717 57.8411 57.8411 46.2717 57.8411 32C57.8411 17.7283 46.2717 6.15886 32 6.15886C17.7283 6.15886 6.15886 17.7283 6.15886 32Z" fill="url(#paint0_linear_662_2358)" fill-opacity="0.3"/>
</g>
<path d="M64 32C64 49.6731 49.6731 64 32 64C14.3269 64 0 49.6731 0 32C0 14.3269 14.3269 0 32 0C49.6731 0 64 14.3269 64 32ZM6.15 32C6.15 46.2766 17.7234 57.85 32 57.85C46.2766 57.85 57.85 46.2766 57.85 32C57.85 17.7234 46.2766 6.15 32 6.15C17.7234 6.15 6.15 17.7234 6.15 32Z" fill="#2380EA"/>
<path d="M28.2209 42L21 34.4073L24.2907 30.9472L28.2209 35.092L39.7093 23L43 26.4601L28.2209 42Z" fill="#F9F9F9"/>
<defs>
<linearGradient id="paint0_linear_662_2358" x1="32" y1="64" x2="32" y2="0" gradientUnits="userSpaceOnUse">
<stop stop-color="#F9F9F9" stop-opacity="0.89"/>
<stop offset="1" stop-color="#F9F9F9" stop-opacity="0.39"/>
<stop offset="1" stop-color="#F9F9F9" stop-opacity="0.31"/>
</linearGradient>
</defs>
</svg>
