<svg width="30" height="30" viewBox="0 0 30 30" fill="none" xmlns="http://www.w3.org/2000/svg">
<path fill-rule="evenodd" clip-rule="evenodd" d="M15 2.95349C8.3506 2.95349 2.95349 8.3506 2.95349 15C2.95349 21.6494 8.3506 27.0465 15 27.0465C21.6494 27.0465 27.0465 21.6494 27.0465 15C27.0465 14.4606 27.4838 14.0233 28.0233 14.0233C28.5627 14.0233 29 14.4606 29 15C29 22.7283 22.7283 29 15 29C7.27172 29 1 22.7283 1 15C1 7.27172 7.27172 1 15 1C15.5394 1 15.9767 1.4373 15.9767 1.97674C15.9767 2.51619 15.5394 2.95349 15 2.95349ZM27.3326 1.28608C27.714 0.904639 28.3325 0.904639 28.7139 1.28608C29.0954 1.66752 29.0954 2.28596 28.7139 2.66741L23.8697 7.51163H26.7209C27.2604 7.51163 27.6977 7.94893 27.6977 8.48837C27.6977 9.02781 27.2604 9.46512 26.7209 9.46512H21.5116C20.9722 9.46512 20.5349 9.02781 20.5349 8.48837V3.27907C20.5349 2.73963 20.9722 2.30233 21.5116 2.30233C22.0511 2.30233 22.4884 2.73963 22.4884 3.27907V6.1303L27.3326 1.28608ZM15 8.16279C15.5394 8.16279 15.9767 8.60009 15.9767 9.13953V9.4521H16.0939C17.872 9.4521 19.2456 10.9466 19.2456 12.7079C19.2456 13.2474 18.8083 13.6847 18.2689 13.6847C17.7294 13.6847 17.2921 13.2474 17.2921 12.7079C17.2921 11.9427 16.7122 11.4056 16.0939 11.4056H15.9767V14.2975L17.2941 14.757C17.753 14.9204 18.2774 15.1768 18.6691 15.6784C19.0695 16.1911 19.2326 16.8306 19.2326 17.5656C19.2326 19.1644 17.9951 20.5349 16.3674 20.5349H15.9767V20.8605C15.9767 21.3999 15.5394 21.8372 15 21.8372C14.4606 21.8372 14.0233 21.3999 14.0233 20.8605V20.5349H13.9191C12.1411 20.5349 10.7674 19.0404 10.7674 17.2791C10.7674 16.7396 11.2047 16.3023 11.7442 16.3023C12.2836 16.3023 12.7209 16.7396 12.7209 17.2791C12.7209 18.0442 13.3008 18.5814 13.9191 18.5814H14.0233V15.685L12.7248 15.232L12.719 15.23C12.2662 15.0688 11.7393 14.817 11.3455 14.3156C10.9424 13.8022 10.7805 13.1604 10.7805 12.4214C10.7805 10.8399 12.0138 9.4521 13.6456 9.4521H14.0233V9.13953C14.0233 8.60009 14.4606 8.16279 15 8.16279ZM14.0233 11.4056H13.6456C13.1936 11.4056 12.734 11.815 12.734 12.4214C12.734 12.8806 12.8325 13.0462 12.8819 13.1091C12.9405 13.1837 13.0578 13.2767 13.3714 13.3886C13.3723 13.3889 13.3732 13.3893 13.374 13.3896L14.0233 13.616V11.4056ZM15.9767 16.3664V18.5814H16.3674C16.8235 18.5814 17.2791 18.1807 17.2791 17.5656C17.2791 17.1154 17.1816 16.9475 17.1295 16.8807C17.0688 16.803 16.9491 16.7081 16.6416 16.5983C16.6408 16.598 16.6399 16.5977 16.639 16.5974L15.9767 16.3664Z" fill="white" stroke="white" stroke-width="0.4" stroke-linecap="round" stroke-linejoin="round"/>
</svg>
